<svg xmlns="http://www.w3.org/2000/svg" xmlns:xlink="http://www.w3.org/1999/xlink" viewBox="0,0,256,256" ><g fill="#cc8084" fill-rule="nonzero" stroke="none" stroke-width="1" stroke-linecap="butt" stroke-linejoin="miter" stroke-miterlimit="10" stroke-dasharray="" stroke-dashoffset="0" font-family="none" font-weight="none" font-size="none" text-anchor="none" style="mix-blend-mode: normal"><g transform="scale(8.53333,8.53333)"><path d="M15,2c-7.168,0 -13,5.832 -13,13c0,7.168 5.832,13 13,13c7.168,0 13,-5.832 13,-13c0,-7.168 -5.832,-13 -13,-13zM11.66602,6h6.66602c3.125,0 5.66797,2.54202 5.66797,5.66602v6.66602c0,3.125 -2.54202,5.66797 -5.66602,5.66797h-6.66602c-3.125,0 -5.66797,-2.54202 -5.66797,-5.66602v-6.66602c0,-3.125 2.54202,-5.66797 5.66602,-5.66797zM11.66602,8c-2.021,0 -3.66602,1.64597 -3.66602,3.66797v6.66602c0,2.021 1.64597,3.66602 3.66797,3.66602h6.66602c2.021,0 3.66602,-1.64597 3.66602,-3.66797v-6.66601c0,-2.021 -1.64597,-3.66602 -3.66797,-3.66602zM19.66797,9.66602c0.368,0 0.66602,0.29802 0.66602,0.66602c0,0.368 -0.29801,0.66797 -0.66602,0.66797c-0.368,0 -0.66797,-0.29997 -0.66797,-0.66797c0,-0.368 0.29997,-0.66602 0.66797,-0.66602zM15,10c2.757,0 5,2.243 5,5c0,2.757 -2.243,5 -5,5c-2.757,0 -5,-2.243 -5,-5c0,-2.757 2.243,-5 5,-5zM15,12c-1.65685,0 -3,1.34315 -3,3c0,1.65685 1.34315,3 3,3c1.65685,0 3,-1.34315 3,-3c0,-1.65685 -1.34315,-3 -3,-3z"></path></g></g></svg>