<svg xmlns="http://www.w3.org/2000/svg" xmlns:xlink="http://www.w3.org/1999/xlink" viewBox="0,0,256,256"><g fill="#7e2bd4" fill-rule="nonzero" stroke="none" stroke-width="1" stroke-linecap="butt" stroke-linejoin="miter" stroke-miterlimit="10" stroke-dasharray="" stroke-dashoffset="0" font-family="none" font-weight="none" font-size="none" text-anchor="none" style="mix-blend-mode: normal"><g transform="scale(5.12,5.12)"><path d="M25,2c-12.7,0 -23,10.3 -23,23c0,12.7 10.3,23 23,23c12.7,0 23,-10.3 23,-23c0,-12.7 -10.3,-23 -23,-23zM19,35c0,0.5 -0.5,1 -1,1h-4c-0.5,0 -1,-0.5 -1,-1v-15c0,-0.5 0.5,-1 1,-1h4c0.5,0 1,0.5 1,1zM16,18c-1.6,0 -3,-1.4 -3,-3c0,-1.6 1.4,-3 3,-3c1.6,0 3,1.4 3,3c0,1.6 -1.4,3 -3,3zM38,35c0,0.5 -0.5,1 -1,1h-4c-0.5,0 -1,-0.5 -1,-1v-7.5c0,-1.4 -1.1,-2.5 -2.5,-2.5c-1.4,0 -2.5,1.1 -2.5,2.5v7.5c0,0.5 -0.5,1 -1,1h-4c-0.5,0 -1,-0.5 -1,-1v-15c0,-0.5 0.5,-1 1,-1h4c0.5,0 1,0.4 1,1c1.1,-0.6 2.2,-1 3.5,-1c4.1,0 7.5,3.4 7.5,7.5z"></path></g></g></svg>